# xmcd CD database file
#
# Track frame offsets:
#	150
#	19998
#	43114
#	61191
#	78004
#	87052
#	102900
#	138716
#	161519
#	179836
#
# Disc length: 2724 seconds
#
# Revision: 12
# Processed by: cddbd v1.5.1PL2 Copyright (c) Steve Scherf et al.
# Submitted via: CDex 1.51
#
DISCID=7e0aa20a
DTITLE=Bud Powell - The Scene Changes
DYEAR=1958
DGENRE=Jazz
TTITLE0=Cleopatra's Dream
TTITLE1=Duid Deed
TTITLE2=Down With It
TTITLE3=Danceland
TTITLE4=Borderick
TTITLE5=Crossin' The Channel
TTITLE6=Comin' Up
TTITLE7=Gettin' There
TTITLE8=The Scene Changes
TTITLE9=Comin' Up (Alternate Take)
EXTD=DNOTES YEAR: 1958
EXTT0=
EXTT1=
EXTT2=
EXTT3=
EXTT4=
EXTT5=
EXTT6=
EXTT7=
EXTT8=
EXTT9=
PLAYORDER=
